<svg version="1.2" xmlns="http://www.w3.org/2000/svg" viewBox="0 0 1535 284" width="1535" height="284">
	<title>opentext-svg</title>
	<style>
		.s0 { fill: #ffffff } 
	</style>
	<path id="Layer" fill-rule="evenodd" class="s0" d="m203.6 130.8c0 46.9-27.9 97.5-101.3 97.5-53.1 0-101.9-29.1-101.9-97.5 0-56.3 36.7-99.9 108.9-96.1 77.2 4.4 94.3 62.6 94.3 96.1zm-137.4-35.4c-6.9 10.1-9.5 22.8-9.5 35.4 0 28.5 14.6 54.5 45.6 54.5 30.4 0 44.9-24.1 44.9-51.9 0-20.3-5-35.4-15.8-44.9-11.4-10.2-24.7-10.8-32.9-10.2-15.2 0.7-24.7 5.7-32.3 17.1zm632.8-39.8c5.7-5.7 8.9-10.2 19-14.6 8.9-3.8 20.9-6.3 34.8-6.3 11.4 0 24.1 1.9 33.6 6.9 19.6 10.2 25.3 26.6 25.3 55.7v126.5h-56.4v-104.3c0-16.5-0.6-22.8-2.5-27.9-4.4-10.1-13.9-13.9-25.3-13.9-29.1 0-29.1 22.8-29.1 46.2v99.9h-55.7v-184.7h56.3zm-82.9 120.2c-5 10.8-21.5 52.5-94.3 52.5-56.3 0-95.5-33.5-95.5-94.2 0-44.3 22.8-99.4 97.4-99.4 11.4 0 43.7-1.2 68.4 24.1 24.7 25.9 25.9 62 26.6 82.9h-136.1c0 22.7 13.3 46.1 43.7 46.1 30.3 0 41.1-19.6 48.1-32.2zm-55.7-68.3c-1.3-7.6-2.5-18.4-10.8-26-6.9-6.9-17.7-10.1-27.2-10.1-13.3 0-22.8 6.3-28.5 12-7.6 8.2-9.5 16.5-11.4 24.7zm832.2 51.9c-0.7 11.3-0.7 20.8 14.5 20.8l19.6-0.6v42.4c-11.4 1.9-18.9 3.1-29.1 3.1-19.6 0-40.5-1.2-52.5-18.3-7.6-10.8-8.2-24-8.2-41.7v-88h-34.2l25.3-37.9h8.9v-38.6h55.7v39.2h36.7v38h-36.7zm-498.7-158.8v38.6h57.6l-25.3 37.9h-32.9v82.3c-0.6 11.3-0.6 20.8 14.5 20.8l19.7-0.6v42.4c-12.1 1.9-19 3.1-29.1 3.1-19 0-40.5-1.2-52.6-18.3-7.6-10.8-8.2-24-8.2-41.8v-164.4zm579.6 77.1v-32.9h-12.6v-5.6h31.6v5.6h-12.6v32.9zm53.8 0v-23.4l0.6-7.6-1.9 6.4-8.2 25.3h-6.4l-8.2-25.3-1.9-6.4 0.6 7.6v23.4h-6.3v-37.9h9.5l9.5 30.4 9.5-30.4h9.5v37.9zm-401.2 98.1l-10.8 15.8c-10.1 13.9-28.4 36.1-82.2 36.1-56.3 0-93.7-33.6-93.7-94.3 0-44.3 22.8-99.3 97.5-99.3 11.4 0 43.6-1.3 68.3 24 24.7 26 26 62 26.6 82.9h-135.4c-0.7 22.8 11.4 46.2 41.1 46.2 30.4 0 39.2-19.6 46.2-32.3zm-51.9-68.3c-1.3-7.6-2.5-18.3-10.7-25.9-7-7-17.8-10.2-27.3-10.2-13.2 0-22.7 6.4-28.4 12.1-7.6 8.2-9.5 16.4-11.4 24.6zm178.4 116.4l-36.7-51.2-33.5 51.2h-63.3l64.6-96.8-62.7-87.3h63.3l29.7 41.2 27.2-41.2h63.3l-57.6 87.3 69.6 96.8zm-972.6-168.2c5.1-8.3 22.2-20.9 49.4-20.9 46.2 0 79.1 34.1 79.1 95.5 0 38-13.9 97.4-81.6 97.4-24.1 0-43.1-13.3-47.5-20.8v77.1h-55.7v-244.8h56.3zm38 21.5c-10.1 0-20.9 3.8-28.5 13.9-8.2 9.5-11.4 24.1-11.4 40.5 0 21.5 6.4 34.8 13.3 42.4 6.4 7 15.9 11.4 25.3 11.4 27.3 0 39.3-27.8 39.3-55 0-22.8-7-46.9-29.8-51.9-3.1-0.6-5.7-1.3-8.2-1.3z"/>
</svg>